<?xml version="1.0" encoding="UTF-8" standalone="no"?>
<svg xmlns="http://www.w3.org/2000/svg" viewBox="0 0 64 64">
  <path d="m 63.984,32 c 0,17.688 -14.312,32 -32,32 C 14.328,64 0.016,49.688 0.016,32 0.016,14.344 14.328,0 31.984,0 c 17.688,0 32,14.344 32,32 z M 40.016,58 c 11,-3.624 18.968,-13.876 18.968,-26 0,-14.906 -12.094,-27 -27,-27 C 17.108,5 5.016,17.092 5.016,32 c 0,12.124 8,22.406 19.032,26 v -5.094 c -7.876,1.782 -9.532,-3.688 -9.532,-3.688 -1.25,-3.218 -3.062,-4.062 -3.062,-4.062 -2.532,-1.718 0.188,-1.688 0.188,-1.688 2.782,0.188 4.25,2.844 4.25,2.844 2.624,4.5 6.968,2.876 8.312,2.218 0.406,-1.968 1.938,-2.376 2.438,-2.532 -7.094,-0.75 -14.688,-3.312 -14.688,-15.594 0,-3.438 1.218,-6.25 3.218,-8.438 -0.312,-0.812 -1.406,-4 0.312,-8.344 0,0 2.656,-0.842 8.656,3.218 2.5,-0.688 5.188,-1.032 7.876,-1.062 2.656,0.032 5.344,0.376 7.876,1.062 6,-4.062 8.624,-3.218 8.624,-3.218 1.718,4.344 0.656,7.532 0.312,8.344 2.032,2.188 3.25,5 3.25,8.438 0,12.282 -7.594,14.812 -14.688,15.562 1.282,0.878 2.626,2.534 2.626,5.69 V 58 z" />
</svg>
