<?xml version="1.0" encoding="UTF-8" standalone="no"?>
<svg xmlns="http://www.w3.org/2000/svg" version="1.1" viewBox="0 0 512 512">
<path
   d="m 511.97825,482.72363 c 0,16.0829 -13.1719,29.25462 -29.25465,29.25462 l -453.447203,0 c -16.08436,0 -29.25465785,-13.17172 -29.25465785,-29.25462 l 0,-453.447228 c 0,-16.082753 13.17029785,-29.25465579 29.25465785,-29.25465579 l 453.447203,0 c 16.08275,0 29.25465,13.17190279 29.25465,29.25465579 l 0,453.447228" style="fill:#3d549e;"/>
   <path d="m 36.590056,475.40992 438.819874,0 0,-73.13662 -438.819874,0 0,73.13662 z" style="fill:#6b7fb9;"/>
   <path d="m 292.56833,475.40992 0,-188.21274 -49.7673,0 0,-67.76549 49.7673,0 c 0,0 0,-27.76926 0,-57.88071 0,-45.48332 29.39764,-87.251661 97.13643,-87.251661 27.42624,0 47.70703,2.629268 47.70703,2.629268 l -1.59803,63.281483 c 0,0 -20.68305,-0.20113 -43.25301,-0.20113 -24.42765,0 -28.34118,11.2572 -28.34118,29.94142 0,14.76993 0,-31.4846 0,49.48133 l 73.53596,0 -3.19972,67.76549 -70.33624,0 0,188.21274 -71.65124,0" style="fill:#ffffff;"/></svg>