<?xml version="1.0" encoding="UTF-8" standalone="no"?>
<svg xmlns="http://www.w3.org/2000/svg" version="1.1" viewBox="0 0 512 512">
  <path d="m 511.80934,97.431034 c -18.85272,8.319626 -39.07933,13.967806 -60.29819,16.486596 21.67682,-12.97556 38.31607,-33.583804 46.1014,-58.084713 -20.30293,12.059638 -42.74302,20.760895 -66.63331,25.493158 -19.15803,-20.379261 -46.40671,-33.12584 -76.63213,-33.12584 -57.93206,0 -104.94938,47.017321 -104.94938,104.949375 0,8.2433 0.91593,16.25762 2.74777,23.8903 C 164.90394,172.68928 87.584875,130.86218 35.835291,67.358267 26.828726,82.852611 21.638502,100.86574 21.638502,120.1001 c 0,36.40789 18.547418,68.54148 46.712014,87.31788 -17.173534,-0.53429 -33.35482,-5.26655 -47.551609,-13.12821 0,0.45796 0,0.83959 0,1.29755 0,50.83367 36.178913,93.27138 84.188483,102.88856 -8.777584,2.36613 -18.089457,3.66369 -27.630309,3.66369 -6.793087,0 -13.357194,-0.68695 -19.768646,-1.90818 13.357193,41.67445 52.131215,72.05252 98.003635,72.89212 C 119.64214,401.2881 74.456662,418.08 25.225863,418.08 16.753586,418.08 8.4339625,417.54572 0.19066597,416.6298 46.597373,446.39725 101.78166,463.79977 161.0876,463.79977 c 193.03053,0 298.59052,-159.90469 298.59052,-298.59052 0,-4.57961 -0.0763,-9.08289 -0.3053,-13.58617 20.53191,-14.80741 38.31606,-33.2785 52.36019,-54.3447 z" style="fill:#41abe1" />
</svg>