<?xml version="1.0" encoding="UTF-8" standalone="no"?>
<svg xmlns="http://www.w3.org/2000/svg" version="1.2" viewBox="0 0 1480 512">
  <circle
     cx="256"
     cy="256"
     r="256"
     id="circle"
     style="fill:#6a3996" />

  <path id="H" d="m 255.99776,441.58278 -58.13603,-58.13603 9.91814,-9.91814 -69.31071,-69.31518 -9.91815,9.9226 -58.136027,-58.13156 87.148157,-87.15263 58.1405,58.13156 -18.93299,18.93748 11.8946,11.8991 49.15248,-49.15696 -11.89461,-11.89462 -18.28462,18.28462 -58.14051,-58.13603 86.49977,-86.499771 58.13604,58.136031 -9.91367,9.91814 69.30177,69.31072 9.9226,-9.91814 58.14052,58.1405 -86.49978,86.4953 -58.1405,-58.13604 18.28461,-18.28461 -9.67219,-9.6722 -49.15247,49.15694 9.66772,9.66774 18.93301,-18.93302 58.14497,58.14499 -87.15263,87.13921 z" style="fill:#ffffff"/>

    <text style="font-size:185px;line-height:110%;font-family:Tuffy">
    <tspan x="570" y="190">
		 Chelmsford
    </tspan>

    <tspan x="570" y="415">
		 Makerspace
    </tspan></text>
</svg>
